<svg class="w-42 h-38 text-gray-800 dark:text-black" aria-hidden="true" xmlns="http://www.w3.org/2000/svg" width="42" height="38" fill="none" viewBox="0 0 42 38">
  <path stroke="currentColor" stroke-linecap="round" stroke-linejoin="round" stroke-width="2" d="M31.285 27.726a12.565 12.565 0 0 1-4.648 4.367 12.387 12.387 0 0 1-6.16 1.495 11.616 11.616 0 0 1-5.8-1.26 11.823 11.823 0 0 1-4.454-3.985c-4.683-8.008.504-15.496 1.558-16.926A7.784 7.784 0 0 0 13.055 9.497 7.863 7.863 0 0 0 12.938 4c2.247 1.688 11.248 5.696 9.666 18.546 2.618-1.986 4.742-5.324 5.008-11.08 2.514 1.865 7.005 9.604 3.673 16.26Z"/>
</svg>
